<?xml version="1.0" encoding="UTF-8"?>
<svg xmlns="http://www.w3.org/2000/svg" xmlns:xlink="http://www.w3.org/1999/xlink" width="600px" height="600px" viewBox="0 0 600 600" version="1.1">
<g id="surface1">
<path style=" stroke:none;fill-rule:evenodd;fill:rgb(35.294118%,63.137255%,26.666667%);fill-opacity:1;" d="M 17.542969 358.097656 C 17.46875 368.300781 17.46875 373.398438 17.542969 373.398438 L 17.660156 373.398438 C 18.277344 373.554688 18.949219 373.707031 19.683594 373.863281 C 20.414062 374.019531 21.703125 374.191406 23.550781 374.382812 C 25.402344 374.578125 27.113281 374.617188 28.691406 374.5 C 30.269531 374.382812 32.042969 374.035156 34.007812 373.457031 C 35.972656 372.878906 37.628906 372.007812 38.976562 370.847656 C 40.320312 369.691406 41.460938 368.027344 42.382812 365.863281 C 43.308594 363.703125 43.769531 361.152344 43.769531 358.214844 C 43.769531 355.125 43.382812 352.441406 42.617188 350.160156 C 41.84375 347.882812 40.84375 346.101562 39.609375 344.828125 C 38.378906 343.554688 36.914062 342.53125 35.222656 341.757812 C 33.527344 340.984375 31.890625 340.519531 30.3125 340.367188 C 28.730469 340.210938 27.054688 340.191406 25.285156 340.308594 C 23.511719 340.425781 22.03125 340.597656 20.835938 340.828125 C 19.640625 341.0625 18.542969 341.332031 17.542969 341.640625 Z M 17.542969 324.949219 L 10.613281 332.949219 C 12.136719 332.417969 13.5625 331.632812 14.828125 330.628906 C 16.101562 329.625 17.101562 328.796875 17.832031 328.136719 C 18.566406 327.480469 19.96875 326.882812 22.050781 326.34375 C 24.128906 325.800781 26.863281 325.53125 30.253906 325.53125 C 33.332031 325.53125 36.300781 325.839844 39.148438 326.457031 C 42 327.078125 44.8125 328.15625 47.582031 329.703125 C 50.355469 331.25 52.761719 333.179688 54.804688 335.5 C 56.84375 337.816406 58.480469 340.8125 59.714844 344.480469 C 60.945312 348.152344 61.5625 352.304688 61.5625 356.941406 C 61.5625 368.917969 58.984375 377.476562 53.824219 382.613281 C 48.660156 387.753906 40.148438 390.320312 28.289062 390.320312 C 24.515625 390.320312 21.125 390.128906 18.121094 389.742188 C 15.117188 389.355469 12.730469 388.929688 10.960938 388.46875 C 9.1875 388.003906 7.570312 387.367188 6.105469 386.554688 C 4.640625 385.742188 3.640625 385.085938 3.101562 384.582031 C 2.5625 384.082031 1.964844 383.425781 1.3125 382.613281 C 0.65625 381.800781 0.289062 381.359375 0.214844 381.28125 L 0.214844 312.894531 C 0.214844 309.808594 0.578125 307.449219 1.3125 305.824219 C 2.042969 304.203125 3.0625 303.179688 4.375 302.753906 C 5.683594 302.332031 7.050781 302.117188 8.476562 302.117188 C 9.898438 302.117188 11.480469 302 13.210938 301.769531 C 14.945312 301.539062 16.390625 300.996094 17.542969 300.144531 Z M 17.542969 324.949219 "/>
<path style=" stroke:none;fill-rule:evenodd;fill:rgb(35.294118%,63.137255%,26.666667%);fill-opacity:1;" d="M 89.710938 355.085938 C 91.019531 354.160156 93.15625 353.539062 96.121094 353.230469 C 99.085938 352.925781 101.859375 352.75 104.441406 352.710938 C 107.019531 352.671875 109.308594 352.128906 111.3125 351.085938 C 113.316406 350.042969 114.277344 348.402344 114.203125 346.160156 C 114.203125 344.152344 112.625 342.492188 109.464844 341.175781 C 105.074219 339.320312 100.800781 339.167969 96.640625 340.714844 C 90.863281 342.800781 88.554688 347.59375 89.710938 355.085938 M 90.285156 367.257812 C 90.285156 369.652344 91.480469 371.449219 93.867188 372.644531 C 96.253906 373.84375 99.277344 374.460938 102.9375 374.5 C 106.59375 374.539062 110.175781 374.382812 113.683594 374.035156 C 117.1875 373.6875 120.5 373.28125 123.617188 372.820312 C 126.738281 372.355469 128.527344 372.125 128.992188 372.125 C 129.296875 378.847656 127.96875 383.597656 125.003906 386.382812 C 122.039062 389.164062 116.089844 390.554688 107.15625 390.554688 C 94.828125 390.554688 85.78125 388.042969 80.003906 383.019531 C 74.226562 377.996094 71.339844 369.304688 71.339844 356.941406 C 71.339844 350.757812 72.128906 345.523438 73.707031 341.234375 C 75.285156 336.945312 77.597656 333.683594 80.640625 331.441406 C 83.679688 329.199219 87.070312 327.617188 90.804688 326.6875 C 94.539062 325.761719 98.910156 325.296875 103.917969 325.296875 C 113.46875 325.296875 120.5 327.328125 125.003906 331.382812 C 129.511719 335.441406 131.761719 341.910156 131.761719 350.796875 C 131.761719 354.199219 131.109375 356.921875 129.800781 358.96875 C 128.488281 361.015625 126.773438 362.390625 124.65625 363.085938 C 122.539062 363.777344 119.996094 364.28125 117.03125 364.589844 C 114.117188 364.898438 111.183594 364.996094 108.25 364.878906 C 105.363281 364.765625 102.246094 364.898438 98.894531 365.285156 C 95.542969 365.671875 92.671875 366.328125 90.285156 367.257812 "/>
<path style=" stroke:none;fill-rule:evenodd;fill:rgb(35.294118%,63.137255%,26.666667%);fill-opacity:1;" d="M 178.285156 374.441406 C 179.363281 377.84375 179.515625 380.972656 178.75 383.832031 C 177.976562 386.691406 176.667969 388.582031 174.820312 389.507812 C 170.8125 390.746094 166.90625 391.113281 163.09375 390.609375 C 159.28125 390.109375 155.890625 389.046875 152.925781 387.421875 C 149.960938 385.800781 147.554688 383.445312 145.707031 380.351562 C 143.855469 377.261719 142.933594 373.746094 142.933594 369.804688 L 142.933594 319.964844 C 142.855469 317.570312 143.242188 315.582031 144.089844 313.996094 C 144.933594 312.414062 146.207031 311.273438 147.902344 310.578125 C 149.59375 309.882812 151.40625 309.441406 153.332031 309.246094 C 155.253906 309.050781 157.566406 309.03125 160.261719 309.1875 L 160.261719 325.992188 L 180.132812 325.992188 L 180.132812 326.863281 C 180.132812 327.210938 180.054688 327.925781 179.902344 329.007812 C 179.753906 330.066406 179.523438 331.113281 179.210938 332.136719 C 178.902344 333.140625 178.382812 334.242188 177.652344 335.441406 C 176.917969 336.640625 176.050781 337.664062 175.050781 338.511719 C 174.046875 339.363281 172.699219 340.074219 171.007812 340.65625 C 169.3125 341.234375 167.425781 341.523438 165.347656 341.523438 C 163.496094 341.523438 161.800781 341.566406 160.261719 341.640625 L 160.378906 368.414062 C 160.300781 370.5 160.726562 372.105469 161.648438 373.226562 C 162.574219 374.347656 163.824219 375.003906 165.402344 375.195312 C 166.984375 375.386719 168.5625 375.425781 170.140625 375.3125 C 171.71875 375.195312 173.335938 375.019531 174.992188 374.789062 C 176.648438 374.558594 177.746094 374.441406 178.285156 374.441406 "/>
<path style=" stroke:none;fill-rule:evenodd;fill:rgb(35.294118%,63.137255%,26.666667%);fill-opacity:1;" d="M 225.503906 374.441406 C 226.582031 377.84375 226.734375 380.972656 225.964844 383.832031 C 225.195312 386.691406 223.886719 388.582031 222.039062 389.507812 C 218.03125 390.746094 214.125 391.113281 210.3125 390.609375 C 206.5 390.109375 203.109375 389.046875 200.144531 387.421875 C 197.179688 385.800781 194.773438 383.445312 192.921875 380.351562 C 191.074219 377.261719 190.152344 373.746094 190.152344 369.804688 L 190.152344 319.964844 C 190.074219 317.570312 190.457031 315.582031 191.304688 313.996094 C 192.152344 312.414062 193.421875 311.273438 195.117188 310.578125 C 196.8125 309.882812 198.621094 309.441406 200.550781 309.246094 C 202.472656 309.050781 204.785156 309.03125 207.480469 309.1875 L 207.480469 325.992188 L 227.351562 325.992188 L 227.351562 326.863281 C 227.351562 327.210938 227.277344 327.925781 227.121094 329.007812 C 226.972656 330.066406 226.738281 331.113281 226.429688 332.136719 C 226.121094 333.140625 225.601562 334.242188 224.867188 335.441406 C 224.136719 336.640625 223.269531 337.664062 222.269531 338.511719 C 221.265625 339.363281 219.917969 340.074219 218.226562 340.65625 C 216.53125 341.234375 214.644531 341.523438 212.5625 341.523438 C 210.714844 341.523438 209.019531 341.566406 207.480469 341.640625 L 207.597656 368.414062 C 207.519531 370.5 207.941406 372.105469 208.867188 373.226562 C 209.792969 374.347656 211.042969 375.003906 212.621094 375.195312 C 214.199219 375.386719 215.78125 375.425781 217.359375 375.3125 C 218.9375 375.195312 220.554688 375.019531 222.210938 374.789062 C 223.867188 374.558594 224.964844 374.441406 225.503906 374.441406 "/>
<path style=" stroke:none;fill-rule:evenodd;fill:rgb(35.294118%,63.137255%,26.666667%);fill-opacity:1;" d="M 253 355.085938 C 254.308594 354.160156 256.445312 353.539062 259.414062 353.230469 C 262.378906 352.925781 265.148438 352.75 267.730469 352.710938 C 270.308594 352.671875 272.601562 352.128906 274.605469 351.085938 C 276.605469 350.042969 277.570312 348.402344 277.492188 346.160156 C 277.492188 344.152344 275.914062 342.492188 272.757812 341.175781 C 268.367188 339.320312 264.09375 339.167969 259.933594 340.714844 C 254.15625 342.800781 251.847656 347.59375 253 355.085938 M 253.578125 367.257812 C 253.578125 369.652344 254.769531 371.449219 257.160156 372.644531 C 259.546875 373.84375 262.570312 374.460938 266.230469 374.5 C 269.886719 374.539062 273.46875 374.382812 276.976562 374.035156 C 280.476562 373.6875 283.789062 373.28125 286.910156 372.820312 C 290.03125 372.355469 291.820312 372.125 292.28125 372.125 C 292.589844 378.847656 291.261719 383.597656 288.296875 386.382812 C 285.328125 389.164062 279.378906 390.554688 270.445312 390.554688 C 258.121094 390.554688 249.070312 388.042969 243.296875 383.019531 C 237.519531 377.996094 234.628906 369.304688 234.632812 356.941406 C 234.632812 350.757812 235.421875 345.523438 237 341.234375 C 238.578125 336.945312 240.886719 333.683594 243.933594 331.441406 C 246.972656 329.199219 250.363281 327.617188 254.097656 326.6875 C 257.832031 325.761719 262.203125 325.296875 267.210938 325.296875 C 276.761719 325.296875 283.789062 327.328125 288.296875 331.382812 C 292.800781 335.441406 295.054688 341.914062 295.054688 350.796875 C 295.054688 354.199219 294.398438 356.921875 293.089844 358.96875 C 291.78125 361.015625 290.066406 362.390625 287.949219 363.085938 C 285.832031 363.777344 283.289062 364.28125 280.324219 364.589844 C 277.410156 364.898438 274.472656 364.996094 271.542969 364.878906 C 268.65625 364.765625 265.535156 364.898438 262.1875 365.285156 C 258.835938 365.671875 255.964844 366.328125 253.578125 367.257812 "/>
<path style=" stroke:none;fill-rule:evenodd;fill:rgb(35.294118%,63.137255%,26.666667%);fill-opacity:1;" d="M 349.910156 325.183594 C 349.832031 325.335938 349.851562 326.148438 349.964844 327.617188 C 350.082031 329.085938 350.0625 330.496094 349.910156 331.847656 C 349.753906 333.199219 349.445312 334.648438 348.984375 336.195312 C 348.523438 337.738281 347.578125 338.976562 346.152344 339.902344 C 344.726562 340.828125 342.898438 341.292969 340.664062 341.292969 C 337.429688 341.292969 334.929688 341.410156 333.15625 341.640625 C 331.382812 341.871094 329.808594 342.453125 328.421875 343.378906 C 327.03125 344.308594 326.109375 345.621094 325.648438 347.320312 C 325.183594 349.019531 324.953125 351.339844 324.953125 354.273438 L 324.953125 391.363281 C 323.566406 390.359375 321.738281 389.566406 319.46875 388.988281 C 317.191406 388.410156 315.265625 387.964844 313.6875 387.65625 C 312.109375 387.347656 310.703125 386.4375 309.472656 384.929688 C 308.238281 383.425781 307.621094 381.242188 307.621094 378.382812 L 307.621094 347.320312 C 307.621094 346.855469 307.640625 346.21875 307.679688 345.410156 C 307.71875 344.597656 307.855469 343.476562 308.085938 342.046875 C 308.316406 340.617188 308.699219 339.1875 309.242188 337.757812 C 309.777344 336.328125 310.589844 334.84375 311.667969 333.296875 C 312.746094 331.75 314.054688 330.398438 315.597656 329.238281 C 317.136719 328.082031 319.117188 327.113281 321.546875 326.34375 C 323.972656 325.570312 326.6875 325.183594 329.691406 325.183594 Z M 349.910156 325.183594 "/>
<path style=" stroke:none;fill-rule:evenodd;fill:rgb(41.568627%,41.568627%,40.392157%);fill-opacity:1;" d="M 379.941406 327.382812 C 383.71875 325.839844 390.03125 325.066406 398.890625 325.066406 C 403.203125 325.066406 406.902344 325.800781 409.980469 327.269531 C 413.0625 328.738281 415.296875 330.417969 416.683594 332.308594 C 418.070312 334.203125 419.128906 336.367188 419.859375 338.800781 C 420.589844 341.234375 420.996094 343.050781 421.074219 344.25 C 421.148438 345.449219 421.148438 346.472656 421.074219 347.320312 L 421.074219 389.507812 C 409.519531 391.054688 403.742188 387.464844 403.742188 378.730469 L 403.742188 365.980469 C 403.820312 354.46875 403.28125 347.457031 402.125 344.945312 C 400.972656 342.433594 397.347656 341.101562 391.265625 340.945312 C 387.492188 340.945312 383.714844 341.640625 379.941406 343.03125 L 379.941406 378.730469 C 380.097656 383.367188 378.652344 386.402344 375.609375 387.828125 C 372.566406 389.261719 368.234375 389.816406 362.613281 389.507812 L 362.613281 299.101562 C 364 300.109375 365.828125 300.707031 368.101562 300.898438 C 370.371094 301.09375 372.296875 301.191406 373.878906 301.191406 C 375.457031 301.191406 376.863281 302.019531 378.09375 303.683594 C 379.324219 305.34375 379.941406 308.066406 379.941406 311.851562 Z M 379.941406 327.382812 "/>
<path style=" stroke:none;fill-rule:evenodd;fill:rgb(41.568627%,41.568627%,40.392157%);fill-opacity:1;" d="M 452.359375 355.085938 C 453.664062 354.160156 455.804688 353.542969 458.765625 353.230469 C 461.734375 352.921875 464.503906 352.75 467.085938 352.710938 C 469.671875 352.671875 471.960938 352.128906 473.964844 351.085938 C 475.96875 350.042969 476.925781 348.402344 476.855469 346.160156 C 476.855469 344.152344 475.269531 342.492188 472.113281 341.175781 C 467.722656 339.320312 463.449219 339.167969 459.289062 340.714844 C 453.507812 342.800781 451.199219 347.59375 452.359375 355.085938 M 452.9375 367.257812 C 452.9375 369.652344 454.128906 371.449219 456.519531 372.644531 C 458.90625 373.84375 461.929688 374.460938 465.585938 374.5 C 469.175781 374.542969 472.761719 374.386719 476.332031 374.035156 C 479.835938 373.6875 483.152344 373.28125 486.265625 372.820312 C 489.386719 372.355469 491.179688 372.125 491.640625 372.125 C 491.949219 378.847656 490.613281 383.597656 487.652344 386.382812 C 484.6875 389.164062 478.738281 390.554688 469.804688 390.554688 C 457.480469 390.554688 448.425781 388.042969 442.652344 383.019531 C 436.875 377.996094 433.988281 369.304688 433.988281 356.941406 C 433.988281 350.757812 434.777344 345.523438 436.355469 341.234375 C 437.933594 336.945312 440.246094 333.683594 443.289062 331.441406 C 446.332031 329.199219 449.71875 327.617188 453.453125 326.6875 C 457.1875 325.761719 461.558594 325.296875 466.570312 325.296875 C 476.121094 325.296875 483.152344 327.328125 487.652344 331.382812 C 492.15625 335.441406 494.410156 341.914062 494.410156 350.796875 C 494.410156 354.199219 493.753906 356.921875 492.449219 358.96875 C 491.136719 361.015625 489.425781 362.390625 487.304688 363.085938 C 485.191406 363.777344 482.648438 364.28125 479.679688 364.589844 C 476.765625 364.898438 473.828125 364.996094 470.898438 364.878906 C 468.015625 364.765625 464.894531 364.898438 461.542969 365.285156 C 458.195312 365.671875 455.324219 366.328125 452.9375 367.257812 "/>
<path style=" stroke:none;fill-rule:evenodd;fill:rgb(41.568627%,41.568627%,40.392157%);fill-opacity:1;" d="M 524.890625 378.730469 C 525.042969 383.367188 523.597656 386.402344 520.554688 387.828125 C 517.511719 389.261719 513.183594 389.816406 507.558594 389.507812 L 507.558594 299.101562 C 508.945312 300.109375 510.773438 300.707031 513.050781 300.898438 C 515.320312 301.09375 517.246094 301.191406 518.824219 301.191406 C 520.402344 301.191406 521.804688 302.023438 523.039062 303.683594 C 524.269531 305.34375 524.890625 308.066406 524.890625 311.851562 Z M 524.890625 378.730469 "/>
<path style=" stroke:none;fill-rule:evenodd;fill:rgb(41.568627%,41.568627%,40.392157%);fill-opacity:1;" d="M 555.941406 357.171875 L 555.941406 373.628906 C 557.179688 374.019531 558.503906 374.324219 559.929688 374.558594 C 561.351562 374.789062 563.148438 374.984375 565.304688 375.136719 C 567.460938 375.292969 569.464844 375.0625 571.308594 374.441406 C 573.15625 373.824219 574.929688 372.9375 576.628906 371.777344 C 578.316406 370.617188 579.664062 368.761719 580.667969 366.210938 C 581.667969 363.664062 582.171875 360.613281 582.171875 357.054688 C 582.171875 354.121094 581.6875 351.570312 580.726562 349.40625 C 579.761719 347.242188 578.644531 345.582031 577.375 344.421875 C 576.105469 343.261719 574.429688 342.394531 572.347656 341.8125 C 570.269531 341.234375 568.535156 340.886719 567.15625 340.773438 C 565.765625 340.65625 564.035156 340.714844 561.953125 340.945312 C 559.871094 341.175781 558.601562 341.332031 558.140625 341.410156 C 557.675781 341.484375 556.984375 341.640625 556.0625 341.871094 L 555.941406 341.871094 C 555.867188 341.871094 555.867188 346.972656 555.941406 357.171875 M 555.941406 415.125 C 554.558594 414.121094 552.730469 413.519531 550.457031 413.328125 C 548.1875 413.136719 546.261719 413.039062 544.683594 413.039062 C 543.097656 413.039062 541.695312 412.207031 540.464844 410.546875 C 539.230469 408.882812 538.617188 406.160156 538.617188 402.375 L 538.617188 333.988281 C 538.691406 333.914062 539.054688 333.46875 539.710938 332.65625 C 540.367188 331.847656 540.960938 331.210938 541.507812 330.746094 C 542.042969 330.28125 543.042969 329.625 544.507812 328.773438 C 545.964844 327.925781 547.585938 327.269531 549.359375 326.804688 C 551.132812 326.339844 553.519531 325.917969 556.523438 325.527344 C 559.523438 325.144531 562.917969 324.949219 566.6875 324.949219 C 578.546875 324.949219 587.0625 327.519531 592.222656 332.65625 C 597.382812 337.796875 599.964844 346.355469 599.964844 358.332031 C 599.964844 364.125 599.035156 369.148438 597.195312 373.398438 C 595.34375 377.648438 592.859375 380.914062 589.738281 383.191406 C 586.617188 385.472656 583.308594 387.132812 579.804688 388.175781 C 576.300781 389.21875 572.578125 389.742188 568.65625 389.742188 C 563.34375 389.742188 559.105469 389.203125 555.941406 388.117188 Z M 555.941406 415.125 "/>
<path style=" stroke:none;fill-rule:evenodd;fill:rgb(35.294118%,63.137255%,26.666667%);fill-opacity:1;" d="M 409.640625 210.695312 C 409.640625 210.695312 370.40625 185.164062 335.960938 196.507812 C 324.410156 200.304688 314.878906 207.765625 307.300781 216.003906 C 303.039062 220.632812 298.132812 231.207031 283.386719 236.964844 C 280.144531 238.226562 276.503906 239.546875 271.921875 240.117188 C 265.253906 240.945312 260.882812 242.558594 255.308594 243.992188 C 252.976562 244.589844 248.398438 245.9375 248.078125 242.996094 C 247.855469 241.042969 249.925781 240.507812 251.699219 239.988281 C 255.484375 238.882812 258.183594 237.9375 261.878906 236.648438 C 263.164062 236.195312 266.542969 235.644531 266.136719 234.289062 C 265.859375 233.363281 263.652344 233.925781 262.597656 234.132812 C 256.058594 235.410156 250.113281 236.542969 243.496094 237.578125 C 240.828125 238 237.582031 238.492188 237.117188 236.132812 C 236.433594 232.640625 240.800781 232.5625 243.816406 232.035156 C 249.375 231.066406 253.773438 230.09375 259.121094 229.035156 C 259.96875 228.871094 261.136719 228.839844 261.496094 227.894531 C 260.539062 227.238281 259.132812 227.65625 257.960938 227.835938 C 250.765625 228.882812 243.203125 230.011719 236.222656 231.460938 C 233.902344 231.941406 231.523438 232.148438 231.023438 230.035156 C 230.179688 226.445312 234.796875 225.867188 237.765625 225.140625 C 244.09375 223.601562 249.398438 223.101562 256.492188 221.914062 C 257.464844 221.746094 259.648438 221.523438 259.644531 220.710938 C 259.648438 219.582031 256.234375 219.9375 255.082031 219.933594 C 249.914062 219.933594 246.132812 220.335938 240.425781 220.917969 C 237.316406 221.230469 233.351562 222.238281 232.972656 219.441406 C 232.390625 215.097656 240.949219 215.539062 244.65625 215.113281 C 251.71875 214.289062 258.425781 214.035156 264.886719 212.371094 C 267.851562 211.609375 271.816406 210.625 272.085938 208.535156 C 272.359375 206.390625 269.398438 203.996094 268.40625 203.355469 C 266.8125 202.328125 264.824219 201.597656 263.203125 200.355469 C 261.609375 199.125 259.933594 197.683594 259.101562 196.085938 C 258.179688 194.347656 257.863281 190.3125 260.46875 190.171875 C 261.5 190.121094 263.867188 192.140625 264.65625 192.660156 C 266.15625 193.640625 267.519531 194.359375 268.75 195.242188 C 271.042969 196.886719 272.558594 198.746094 274.84375 199.867188 C 276.558594 200.703125 278.253906 201.324219 279.90625 202.191406 C 281.511719 203.039062 283.128906 203.875 284.695312 204.828125 C 286.335938 205.835938 287.84375 208.125 290.015625 209.277344 C 302.046875 215.632812 308.394531 203.726562 305.480469 202.210938 C 290.441406 194.355469 265.699219 184.046875 251.066406 185.539062 C 215.007812 189.214844 189.4375 228.546875 189.4375 228.546875 C 189.4375 228.546875 222.339844 261.917969 258.394531 258.246094 C 276.96875 256.355469 292.738281 245.011719 303.679688 234.449219 C 303.398438 234.109375 313.890625 221.625 326.605469 217.125 C 332.9375 214.878906 336.863281 212.363281 342.011719 209.765625 C 344.15625 208.679688 348.34375 206.382812 349.285156 209.183594 C 349.910156 211.046875 348.003906 212.011719 346.386719 212.898438 C 342.925781 214.789062 340.484375 216.296875 337.152344 218.355469 C 335.996094 219.070312 332.808594 220.332031 333.492188 221.570312 C 333.957031 222.417969 335.996094 221.398438 336.984375 220.960938 C 343.097656 218.3125 348.667969 215.921875 354.914062 213.492188 C 357.425781 212.503906 360.492188 211.328125 361.445312 213.527344 C 362.863281 216.796875 358.613281 217.8125 355.773438 218.976562 C 350.550781 221.121094 346.464844 223.011719 341.46875 225.195312 C 340.671875 225.542969 339.535156 225.820312 339.386719 226.820312 C 340.460938 227.257812 341.742188 226.542969 342.859375 226.121094 C 349.65625 223.546875 356.804688 220.824219 363.316406 217.902344 C 365.480469 216.941406 367.761719 216.226562 368.699219 218.1875 C 370.289062 221.503906 365.898438 223.070312 363.152344 224.410156 C 357.304688 227.273438 352.226562 228.90625 345.546875 231.585938 C 344.632812 231.960938 342.546875 232.644531 342.722656 233.4375 C 342.953125 234.546875 346.21875 233.464844 347.34375 233.21875 C 352.394531 232.109375 356 230.902344 361.445312 229.113281 C 364.421875 228.132812 368.085938 226.296875 369.042969 228.945312 C 370.542969 233.066406 362.082031 234.476562 358.550781 235.6875 C 351.832031 238.007812 345.332031 239.703125 339.375 242.710938 C 336.640625 244.09375 332.980469 245.910156 333.160156 248.007812 C 333.347656 250.164062 336.746094 251.867188 337.851562 252.28125 C 339.628906 252.941406 341.726562 253.222656 343.574219 254.097656 C 345.394531 254.953125 347.339844 255.996094 348.488281 257.375 C 349.761719 258.878906 350.925781 262.753906 348.410156 263.445312 C 347.414062 263.722656 344.667969 262.257812 343.796875 261.921875 C 342.113281 261.285156 340.632812 260.875 339.238281 260.277344 C 336.65625 259.164062 334.777344 257.671875 332.304688 257.070312 C 330.457031 256.621094 328.664062 256.382812 326.863281 255.886719 C 325.121094 255.402344 323.363281 254.9375 321.628906 254.339844 C 319.8125 253.710938 317.441406 252.628906 315.484375 251.144531 C 314.804688 250.632812 313.5 249.667969 312.035156 250.09375 C 302.339844 250.320312 292.796875 255.65625 287.382812 265.039062 C 282.105469 274.199219 282.085938 284.875 286.378906 293.355469 C 285.476562 286.957031 286.660156 280.109375 290.207031 273.964844 C 293.578125 268.113281 298.5625 263.824219 304.183594 261.363281 C 318.730469 267.144531 339.382812 272.28125 358.582031 265.957031 C 393.023438 254.613281 409.640625 210.695312 409.640625 210.695312 "/>
</g>
</svg>
