<?xml version="1.0" encoding="UTF-8"?>
<svg xmlns="http://www.w3.org/2000/svg" xmlns:xlink="http://www.w3.org/1999/xlink" width="1200px" height="1200px" viewBox="0 0 1200 1200" version="1.1">
<g id="surface1">
<path style=" stroke:none;fill-rule:evenodd;fill:rgb(35.294118%,63.137255%,26.666667%);fill-opacity:1;" d="M 35.089844 716.199219 C 34.933594 736.597656 34.933594 746.796875 35.089844 746.796875 L 35.320312 746.796875 C 36.550781 747.109375 37.898438 747.417969 39.363281 747.722656 C 40.828125 748.035156 43.40625 748.382812 47.105469 748.769531 C 50.800781 749.15625 54.230469 749.234375 57.386719 749 C 60.542969 748.769531 64.085938 748.074219 68.015625 746.914062 C 71.945312 745.753906 75.253906 744.015625 77.953125 741.699219 C 80.644531 739.378906 82.921875 736.058594 84.769531 731.730469 C 86.617188 727.40625 87.542969 722.304688 87.542969 716.429688 C 87.542969 710.25 86.769531 704.882812 85.230469 700.320312 C 83.691406 695.765625 81.6875 692.207031 79.222656 689.65625 C 76.757812 687.105469 73.828125 685.058594 70.441406 683.511719 C 67.050781 681.96875 63.777344 681.042969 60.621094 680.730469 C 57.460938 680.421875 54.113281 680.382812 50.570312 680.617188 C 47.023438 680.847656 44.058594 681.195312 41.671875 681.660156 C 39.285156 682.121094 37.089844 682.664062 35.089844 683.28125 Z M 35.089844 649.898438 L 21.226562 665.894531 C 24.277344 664.832031 27.125 663.265625 29.65625 661.257812 C 32.203125 659.253906 34.203125 657.589844 35.667969 656.277344 C 37.128906 654.964844 39.941406 653.765625 44.101562 652.683594 C 48.257812 651.601562 53.726562 651.058594 60.507812 651.058594 C 66.664062 651.058594 72.597656 651.679688 78.296875 652.914062 C 83.996094 654.15625 89.621094 656.316406 95.164062 659.40625 C 100.714844 662.5 105.527344 666.359375 109.609375 670.996094 C 113.6875 675.632812 116.964844 681.621094 119.429688 688.960938 C 121.890625 696.304688 123.125 704.609375 123.125 713.878906 C 123.125 737.839844 117.964844 754.953125 107.644531 765.226562 C 97.320312 775.507812 80.296875 780.644531 56.578125 780.644531 C 49.027344 780.644531 42.253906 780.253906 36.246094 779.484375 C 30.234375 778.710938 25.460938 777.863281 21.917969 776.933594 C 18.375 776.007812 15.136719 774.730469 12.210938 773.109375 C 9.285156 771.488281 7.28125 770.171875 6.207031 769.167969 C 5.125 768.164062 3.933594 766.851562 2.625 765.226562 C 1.3125 763.605469 0.582031 762.714844 0.429688 762.5625 L 0.429688 625.789062 C 0.429688 619.613281 1.160156 614.898438 2.625 611.652344 C 4.085938 608.40625 6.128906 606.359375 8.746094 605.507812 C 11.363281 604.660156 14.097656 604.234375 16.953125 604.234375 C 19.800781 604.234375 22.957031 604.003906 26.421875 603.539062 C 29.890625 603.074219 32.777344 601.996094 35.089844 600.292969 Z M 35.089844 649.898438 "/>
<path style=" stroke:none;fill-rule:evenodd;fill:rgb(35.294118%,63.137255%,26.666667%);fill-opacity:1;" d="M 179.417969 710.171875 C 182.035156 708.316406 186.308594 707.082031 192.242188 706.464844 C 198.171875 705.847656 203.714844 705.5 208.878906 705.421875 C 214.039062 705.34375 218.621094 704.261719 222.628906 702.171875 C 226.632812 700.089844 228.554688 696.804688 228.40625 692.324219 C 228.40625 688.304688 225.246094 684.984375 218.929688 682.355469 C 210.152344 678.644531 201.601562 678.335938 193.285156 681.425781 C 181.726562 685.597656 177.109375 695.183594 179.417969 710.171875 M 180.574219 734.511719 C 180.574219 739.304688 182.957031 742.898438 187.734375 745.292969 C 192.507812 747.6875 198.554688 748.925781 205.875 749 C 213.191406 749.078125 220.351562 748.769531 227.363281 748.074219 C 234.371094 747.378906 240.996094 746.566406 247.238281 745.640625 C 253.476562 744.710938 257.054688 744.25 257.980469 744.25 C 258.59375 757.691406 255.9375 767.199219 250.007812 772.761719 C 244.078125 778.324219 232.175781 781.105469 214.308594 781.105469 C 189.660156 781.105469 171.5625 776.085938 160.007812 766.039062 C 148.457031 755.996094 142.679688 738.609375 142.679688 713.878906 C 142.679688 701.519531 144.257812 691.046875 147.414062 682.46875 C 150.570312 673.894531 155.191406 667.367188 161.277344 662.882812 C 167.363281 658.402344 174.140625 655.234375 181.613281 653.378906 C 189.082031 651.523438 197.824219 650.597656 207.839844 650.597656 C 226.941406 650.597656 240.996094 654.652344 250.007812 662.765625 C 259.019531 670.882812 263.527344 683.824219 263.527344 701.59375 C 263.527344 708.398438 262.21875 713.84375 259.597656 717.9375 C 256.976562 722.035156 253.550781 724.777344 249.316406 726.167969 C 245.078125 727.558594 239.992188 728.5625 234.066406 729.179688 C 228.234375 729.796875 222.363281 729.988281 216.503906 729.761719 C 210.726562 729.527344 204.488281 729.796875 197.785156 730.570312 C 191.085938 731.347656 185.34375 732.65625 180.574219 734.511719 "/>
<path style=" stroke:none;fill-rule:evenodd;fill:rgb(35.294118%,63.137255%,26.666667%);fill-opacity:1;" d="M 356.574219 748.882812 C 358.730469 755.6875 359.035156 761.945312 357.496094 767.660156 C 355.957031 773.382812 353.335938 777.164062 349.640625 779.019531 C 341.628906 781.492188 333.8125 782.226562 326.1875 781.222656 C 318.5625 780.214844 311.78125 778.09375 305.855469 774.847656 C 299.921875 771.601562 295.109375 766.890625 291.410156 760.707031 C 287.714844 754.523438 285.867188 747.496094 285.867188 739.613281 L 285.867188 639.933594 C 285.710938 635.144531 286.480469 631.164062 288.175781 627.996094 C 289.871094 624.828125 292.410156 622.546875 295.800781 621.15625 C 299.1875 619.765625 302.808594 618.878906 306.664062 618.492188 C 310.507812 618.105469 315.128906 618.066406 320.527344 618.375 L 320.527344 651.984375 L 360.269531 651.984375 L 360.269531 653.726562 C 360.269531 654.421875 360.113281 655.851562 359.808594 658.015625 C 359.507812 660.132812 359.042969 662.226562 358.421875 664.273438 C 357.804688 666.285156 356.765625 668.484375 355.300781 670.882812 C 353.835938 673.277344 352.101562 675.324219 350.101562 677.023438 C 348.097656 678.726562 345.402344 680.152344 342.015625 681.3125 C 338.625 682.46875 334.851562 683.050781 330.691406 683.050781 C 326.996094 683.050781 323.605469 683.128906 320.527344 683.28125 L 320.757812 736.832031 C 320.601562 741.003906 321.449219 744.210938 323.300781 746.449219 C 325.148438 748.691406 327.648438 750.007812 330.808594 750.390625 C 333.964844 750.777344 337.125 750.855469 340.28125 750.621094 C 343.4375 750.390625 346.671875 750.042969 349.988281 749.578125 C 353.296875 749.117188 355.492188 748.882812 356.574219 748.882812 "/>
<path style=" stroke:none;fill-rule:evenodd;fill:rgb(35.294118%,63.137255%,26.666667%);fill-opacity:1;" d="M 451.007812 748.882812 C 453.164062 755.6875 453.46875 761.945312 451.933594 767.660156 C 450.390625 773.382812 447.773438 777.164062 444.074219 779.019531 C 436.0625 781.492188 428.246094 782.226562 420.621094 781.222656 C 413 780.214844 406.214844 778.09375 400.289062 774.847656 C 394.359375 771.601562 389.542969 766.890625 385.847656 760.707031 C 382.148438 754.523438 380.300781 747.496094 380.300781 739.613281 L 380.300781 639.933594 C 380.144531 635.144531 380.914062 631.164062 382.613281 627.996094 C 384.304688 624.828125 386.847656 622.546875 390.238281 621.15625 C 393.621094 619.765625 397.246094 618.878906 401.097656 618.492188 C 404.945312 618.105469 409.566406 618.066406 414.960938 618.375 L 414.960938 651.984375 L 454.703125 651.984375 L 454.703125 653.726562 C 454.703125 654.421875 454.550781 655.851562 454.242188 658.015625 C 453.941406 660.132812 453.480469 662.226562 452.855469 664.273438 C 452.238281 666.285156 451.199219 668.484375 449.738281 670.882812 C 448.273438 673.277344 446.539062 675.324219 444.535156 677.023438 C 442.53125 678.726562 439.835938 680.152344 436.453125 681.3125 C 433.0625 682.46875 429.289062 683.050781 425.128906 683.050781 C 421.429688 683.050781 418.042969 683.128906 414.960938 683.28125 L 415.195312 736.832031 C 415.039062 741.003906 415.886719 744.210938 417.734375 746.449219 C 419.582031 748.691406 422.085938 750.007812 425.242188 750.390625 C 428.402344 750.777344 431.558594 750.855469 434.71875 750.621094 C 437.871094 750.390625 441.105469 750.042969 444.421875 749.578125 C 447.734375 749.117188 449.929688 748.882812 451.007812 748.882812 "/>
<path style=" stroke:none;fill-rule:evenodd;fill:rgb(35.294118%,63.137255%,26.666667%);fill-opacity:1;" d="M 506.003906 710.171875 C 508.621094 708.316406 512.894531 707.082031 518.824219 706.464844 C 524.753906 705.847656 530.300781 705.5 535.460938 705.421875 C 540.621094 705.34375 545.203125 704.261719 549.210938 702.171875 C 553.210938 700.089844 555.136719 696.804688 554.988281 692.324219 C 554.988281 688.304688 551.828125 684.984375 545.515625 682.355469 C 536.734375 678.644531 528.1875 678.335938 519.867188 681.425781 C 508.3125 685.597656 503.691406 695.183594 506.003906 710.171875 M 507.15625 734.511719 C 507.15625 739.304688 509.542969 742.898438 514.320312 745.292969 C 519.09375 747.6875 525.140625 748.925781 532.457031 749 C 539.773438 749.078125 546.9375 748.769531 553.949219 748.074219 C 560.957031 747.378906 567.578125 746.566406 573.820312 745.640625 C 580.058594 744.710938 583.640625 744.25 584.5625 744.25 C 585.175781 757.695312 582.519531 767.199219 576.589844 772.761719 C 570.660156 778.324219 558.757812 781.105469 540.894531 781.105469 C 516.242188 781.105469 498.144531 776.085938 486.59375 766.039062 C 475.039062 755.996094 469.261719 738.609375 469.261719 713.878906 C 469.261719 701.519531 470.839844 691.046875 474 682.46875 C 477.152344 673.894531 481.773438 667.367188 487.863281 662.882812 C 493.945312 658.402344 500.722656 655.234375 508.195312 653.378906 C 515.667969 651.523438 524.40625 650.597656 534.425781 650.597656 C 553.519531 650.597656 567.582031 654.652344 576.589844 662.765625 C 585.605469 670.882812 590.109375 683.824219 590.109375 701.59375 C 590.109375 708.398438 588.800781 713.84375 586.179688 717.9375 C 583.558594 722.035156 580.136719 724.777344 575.898438 726.167969 C 571.660156 727.558594 566.578125 728.5625 560.652344 729.179688 C 554.816406 729.796875 548.949219 729.988281 543.085938 729.761719 C 537.308594 729.527344 531.070312 729.796875 524.371094 730.570312 C 517.671875 731.347656 511.929688 732.65625 507.15625 734.511719 "/>
<path style=" stroke:none;fill-rule:evenodd;fill:rgb(35.294118%,63.137255%,26.666667%);fill-opacity:1;" d="M 699.816406 650.363281 C 699.664062 650.675781 699.703125 652.296875 699.933594 655.234375 C 700.164062 658.171875 700.125 660.992188 699.816406 663.691406 C 699.507812 666.398438 698.894531 669.296875 697.972656 672.386719 C 697.046875 675.480469 695.15625 677.949219 692.308594 679.804688 C 689.457031 681.660156 685.796875 682.585938 681.332031 682.585938 C 674.863281 682.585938 669.855469 682.816406 666.3125 683.28125 C 662.769531 683.746094 659.613281 684.902344 656.839844 686.761719 C 654.066406 688.613281 652.21875 691.246094 651.292969 694.640625 C 650.367188 698.039062 649.90625 702.675781 649.90625 708.550781 L 649.90625 782.726562 C 647.132812 780.71875 643.476562 779.136719 638.933594 777.976562 C 634.386719 776.816406 630.535156 775.929688 627.378906 775.3125 C 624.21875 774.695312 621.410156 772.878906 618.941406 769.863281 C 616.476562 766.851562 615.246094 762.484375 615.246094 756.765625 L 615.246094 694.640625 C 615.246094 693.714844 615.285156 692.4375 615.363281 690.816406 C 615.441406 689.191406 615.707031 686.953125 616.171875 684.09375 C 616.632812 681.234375 617.402344 678.375 618.480469 675.515625 C 619.558594 672.660156 621.175781 669.683594 623.335938 666.589844 C 625.492188 663.5 628.109375 660.796875 631.191406 658.476562 C 634.269531 656.160156 638.238281 654.230469 643.09375 652.683594 C 647.941406 651.136719 653.375 650.363281 659.382812 650.363281 Z M 699.816406 650.363281 "/>
<path style=" stroke:none;fill-rule:evenodd;fill:rgb(41.568627%,41.568627%,40.392157%);fill-opacity:1;" d="M 759.886719 654.769531 C 767.433594 651.679688 780.066406 650.132812 797.78125 650.132812 C 806.410156 650.132812 813.800781 651.601562 819.964844 654.535156 C 826.121094 657.472656 830.59375 660.835938 833.367188 664.621094 C 836.140625 668.410156 838.253906 672.734375 839.71875 677.601562 C 841.183594 682.46875 841.992188 686.101562 842.148438 688.5 C 842.296875 690.894531 842.296875 692.941406 842.148438 694.640625 L 842.148438 779.019531 C 819.039062 782.109375 807.488281 774.929688 807.488281 757.460938 L 807.488281 731.960938 C 807.640625 708.9375 806.5625 694.914062 804.253906 689.890625 C 801.945312 684.867188 794.695312 682.203125 782.53125 681.890625 C 774.980469 681.890625 767.433594 683.28125 759.886719 686.0625 L 759.886719 757.460938 C 760.191406 766.734375 757.304688 772.800781 751.222656 775.660156 C 745.132812 778.519531 736.46875 779.636719 725.226562 779.019531 L 725.226562 598.207031 C 727.996094 600.214844 731.65625 601.414062 736.203125 601.800781 C 740.742188 602.1875 744.59375 602.382812 747.757812 602.378906 C 750.914062 602.382812 753.722656 604.042969 756.1875 607.363281 C 758.652344 610.6875 759.886719 616.136719 759.886719 623.707031 Z M 759.886719 654.769531 "/>
<path style=" stroke:none;fill-rule:evenodd;fill:rgb(41.568627%,41.568627%,40.392157%);fill-opacity:1;" d="M 904.714844 710.171875 C 907.324219 708.316406 911.613281 707.082031 917.53125 706.464844 C 923.464844 705.847656 929.007812 705.5 934.175781 705.421875 C 939.339844 705.34375 943.921875 704.261719 947.929688 702.171875 C 951.933594 700.089844 953.847656 696.804688 953.707031 692.324219 C 953.707031 688.304688 950.539062 684.984375 944.226562 682.355469 C 935.445312 678.644531 926.902344 678.335938 918.578125 681.425781 C 907.019531 685.597656 902.398438 695.183594 904.714844 710.171875 M 905.875 734.511719 C 905.875 739.304688 908.261719 742.898438 913.035156 745.292969 C 917.8125 747.6875 923.855469 748.925781 931.171875 749 C 938.347656 749.082031 945.519531 748.773438 952.660156 748.074219 C 959.671875 747.378906 966.300781 746.566406 972.527344 745.640625 C 978.769531 744.710938 982.359375 744.25 983.28125 744.25 C 983.894531 757.695312 981.226562 767.199219 975.308594 772.761719 C 969.375 778.324219 957.476562 781.105469 939.605469 781.105469 C 914.964844 781.105469 896.855469 776.085938 885.308594 766.039062 C 873.75 755.996094 867.976562 738.609375 867.976562 713.878906 C 867.976562 701.519531 869.554688 691.046875 872.710938 682.46875 C 875.867188 673.894531 880.492188 667.367188 886.578125 662.882812 C 892.664062 658.402344 899.4375 655.234375 906.90625 653.378906 C 914.378906 651.523438 923.117188 650.597656 933.140625 650.597656 C 952.242188 650.597656 966.300781 654.652344 975.308594 662.765625 C 984.3125 670.882812 988.824219 683.824219 988.824219 701.59375 C 988.824219 708.398438 987.511719 713.84375 984.898438 717.9375 C 982.273438 722.035156 978.855469 724.777344 974.609375 726.167969 C 970.378906 727.558594 965.296875 728.5625 959.363281 729.179688 C 953.53125 729.796875 947.660156 729.988281 941.800781 729.761719 C 936.03125 729.527344 929.792969 729.800781 923.089844 730.570312 C 916.386719 731.347656 910.648438 732.65625 905.875 734.511719 "/>
<path style=" stroke:none;fill-rule:evenodd;fill:rgb(41.568627%,41.568627%,40.392157%);fill-opacity:1;" d="M 1049.78125 757.460938 C 1050.089844 766.734375 1047.199219 772.800781 1041.113281 775.660156 C 1035.023438 778.519531 1026.367188 779.636719 1015.113281 779.019531 L 1015.113281 598.207031 C 1017.890625 600.214844 1021.550781 601.414062 1026.101562 601.800781 C 1030.640625 602.1875 1034.492188 602.378906 1037.648438 602.378906 C 1040.804688 602.378906 1043.609375 604.042969 1046.082031 607.363281 C 1048.539062 610.6875 1049.78125 616.136719 1049.78125 623.707031 Z M 1049.78125 757.460938 "/>
<path style=" stroke:none;fill-rule:evenodd;fill:rgb(41.568627%,41.568627%,40.392157%);fill-opacity:1;" d="M 1111.886719 714.34375 L 1111.886719 747.261719 C 1114.355469 748.035156 1117.007812 748.652344 1119.859375 749.113281 C 1122.707031 749.578125 1126.292969 749.96875 1130.609375 750.273438 C 1134.921875 750.585938 1138.929688 750.121094 1142.617188 748.882812 C 1146.316406 747.648438 1149.863281 745.871094 1153.253906 743.554688 C 1156.632812 741.234375 1159.328125 737.527344 1161.339844 732.425781 C 1163.335938 727.324219 1164.339844 721.222656 1164.339844 714.113281 C 1164.339844 708.242188 1163.378906 703.140625 1161.449219 698.8125 C 1159.523438 694.488281 1157.289062 691.164062 1154.75 688.847656 C 1152.207031 686.527344 1148.855469 684.789062 1144.695312 683.628906 C 1140.535156 682.46875 1137.074219 681.773438 1134.308594 681.542969 C 1131.53125 681.3125 1128.066406 681.425781 1123.90625 681.890625 C 1119.746094 682.351562 1117.207031 682.664062 1116.285156 682.816406 C 1115.347656 682.972656 1113.964844 683.28125 1112.121094 683.746094 L 1111.886719 683.746094 C 1111.730469 683.746094 1111.730469 693.945312 1111.886719 714.34375 M 1111.886719 830.25 C 1109.121094 828.238281 1105.460938 827.042969 1100.910156 826.65625 C 1096.375 826.269531 1092.519531 826.078125 1089.363281 826.078125 C 1086.195312 826.078125 1083.386719 824.414062 1080.929688 821.089844 C 1078.460938 817.769531 1077.230469 812.320312 1077.230469 804.75 L 1077.230469 667.980469 C 1077.382812 667.828125 1078.109375 666.9375 1079.421875 665.316406 C 1080.734375 663.691406 1081.921875 662.417969 1083.011719 661.492188 C 1084.085938 660.5625 1086.082031 659.253906 1089.015625 657.550781 C 1091.933594 655.851562 1095.171875 654.535156 1098.71875 653.609375 C 1102.265625 652.683594 1107.039062 651.832031 1113.042969 651.058594 C 1119.046875 650.285156 1125.832031 649.898438 1133.371094 649.898438 C 1157.09375 649.898438 1174.128906 655.039062 1184.445312 665.316406 C 1194.765625 675.59375 1199.929688 692.710938 1199.929688 716.660156 C 1199.929688 728.253906 1198.074219 738.300781 1194.386719 746.796875 C 1190.6875 755.300781 1185.71875 761.828125 1179.476562 766.382812 C 1173.234375 770.945312 1166.617188 774.265625 1159.609375 776.355469 C 1152.597656 778.4375 1145.15625 779.484375 1137.308594 779.484375 C 1126.683594 779.484375 1118.210938 778.402344 1111.886719 776.238281 Z M 1111.886719 830.25 "/>
<path style=" stroke:none;fill-rule:evenodd;fill:rgb(35.294118%,63.137255%,26.666667%);fill-opacity:1;" d="M 819.277344 421.386719 C 819.277344 421.386719 740.8125 370.332031 671.917969 393.015625 C 648.816406 400.613281 629.757812 415.53125 614.597656 432.003906 C 606.078125 441.265625 596.265625 462.417969 566.769531 473.925781 C 560.289062 476.453125 553.007812 479.09375 543.839844 480.234375 C 530.507812 481.894531 521.765625 485.117188 510.613281 487.984375 C 505.953125 489.179688 496.800781 491.875 496.15625 485.992188 C 495.714844 482.085938 499.851562 481.011719 503.402344 479.976562 C 510.964844 477.761719 516.363281 475.875 523.757812 473.292969 C 526.328125 472.390625 533.085938 471.289062 532.269531 468.578125 C 531.722656 466.730469 527.300781 467.851562 525.195312 468.265625 C 512.117188 470.820312 500.226562 473.089844 486.996094 475.15625 C 481.652344 476 475.164062 476.984375 474.234375 472.269531 C 472.863281 465.28125 481.601562 465.125 487.632812 464.070312 C 498.75 462.128906 507.546875 460.191406 518.238281 458.070312 C 519.9375 457.742188 522.277344 457.683594 522.996094 455.789062 C 521.078125 454.476562 518.265625 455.316406 515.917969 455.667969 C 501.535156 457.765625 486.410156 460.019531 472.445312 462.921875 C 467.800781 463.882812 463.042969 464.292969 462.050781 460.070312 C 460.359375 452.894531 469.597656 451.730469 475.53125 450.285156 C 488.183594 447.203125 498.800781 446.203125 512.984375 443.832031 C 514.925781 443.496094 519.296875 443.046875 519.289062 441.425781 C 519.300781 439.164062 512.464844 439.875 510.164062 439.871094 C 499.832031 439.863281 492.265625 440.671875 480.855469 441.835938 C 474.628906 442.460938 466.703125 444.480469 465.949219 438.886719 C 464.777344 430.195312 481.902344 431.074219 489.316406 430.226562 C 503.4375 428.574219 516.851562 428.070312 529.769531 424.746094 C 535.707031 423.222656 543.628906 421.25 544.171875 417.070312 C 544.71875 412.777344 538.796875 407.996094 536.816406 406.707031 C 533.625 404.65625 529.644531 403.191406 526.40625 400.710938 C 523.214844 398.246094 519.871094 395.367188 518.199219 392.175781 C 516.359375 388.695312 515.726562 380.625 520.933594 380.347656 C 523.003906 380.238281 527.734375 384.28125 529.3125 385.320312 C 532.3125 387.28125 535.039062 388.722656 537.5 390.488281 C 542.085938 393.773438 545.117188 397.492188 549.691406 399.734375 C 553.113281 401.40625 556.507812 402.648438 559.8125 404.382812 C 563.019531 406.082031 566.257812 407.746094 569.390625 409.660156 C 572.671875 411.671875 575.691406 416.25 580.035156 418.550781 C 604.09375 431.265625 616.789062 407.453125 610.964844 404.417969 C 580.882812 388.714844 531.398438 368.089844 502.132812 371.078125 C 430.015625 378.425781 378.878906 457.097656 378.878906 457.097656 C 378.878906 457.097656 444.675781 523.835938 516.789062 516.492188 C 553.9375 512.714844 585.476562 490.019531 607.359375 468.894531 C 606.792969 468.21875 627.777344 443.25 653.214844 434.246094 C 665.878906 429.757812 673.730469 424.730469 684.027344 419.535156 C 688.3125 417.363281 696.6875 412.761719 698.570312 418.363281 C 699.820312 422.09375 696.007812 424.023438 692.773438 425.796875 C 685.851562 429.582031 680.972656 432.59375 674.300781 436.710938 C 671.988281 438.136719 665.617188 440.664062 666.988281 443.144531 C 667.917969 444.832031 671.992188 442.792969 673.96875 441.925781 C 686.191406 436.625 697.335938 431.84375 709.824219 426.984375 C 714.855469 425.007812 720.984375 422.65625 722.894531 427.058594 C 725.726562 433.597656 717.230469 435.625 711.550781 437.953125 C 701.105469 442.242188 692.925781 446.023438 682.933594 450.394531 C 681.347656 451.082031 679.074219 451.636719 678.773438 453.644531 C 680.921875 454.515625 683.484375 453.085938 685.714844 452.242188 C 699.3125 447.09375 713.609375 441.644531 726.632812 435.804688 C 730.960938 433.878906 735.527344 432.453125 737.394531 436.371094 C 740.578125 443.007812 731.800781 446.136719 726.304688 448.820312 C 714.609375 454.550781 704.449219 457.808594 691.097656 463.175781 C 689.261719 463.921875 685.09375 465.289062 685.441406 466.878906 C 685.90625 469.09375 692.4375 466.929688 694.691406 466.433594 C 704.785156 464.222656 712 461.800781 722.894531 458.222656 C 728.84375 456.261719 736.171875 452.589844 738.085938 457.886719 C 741.082031 466.128906 724.167969 468.953125 717.101562 471.378906 C 703.660156 476.015625 690.664062 479.410156 678.753906 485.421875 C 673.285156 488.191406 665.960938 491.820312 666.324219 496.015625 C 666.695312 500.328125 673.496094 503.730469 675.703125 504.558594 C 679.257812 505.882812 683.457031 506.445312 687.148438 508.195312 C 690.789062 509.902344 694.675781 511.996094 696.980469 514.753906 C 699.523438 517.761719 701.847656 525.507812 696.820312 526.894531 C 694.828125 527.445312 689.339844 524.519531 687.59375 523.84375 C 684.230469 522.570312 681.269531 521.75 678.480469 520.554688 C 673.308594 518.332031 669.558594 515.34375 664.605469 514.140625 C 660.914062 513.238281 657.328125 512.761719 653.726562 511.773438 C 650.238281 510.808594 646.726562 509.878906 643.257812 508.679688 C 639.628906 507.417969 634.882812 505.257812 630.96875 502.285156 C 629.609375 501.261719 627.003906 499.339844 624.070312 500.1875 C 604.675781 500.644531 585.589844 511.316406 574.765625 530.082031 C 564.207031 548.394531 564.171875 569.753906 572.757812 586.707031 C 570.949219 573.917969 573.320312 560.222656 580.410156 547.925781 C 587.160156 536.226562 597.121094 527.648438 608.367188 522.726562 C 637.460938 534.289062 678.761719 544.5625 717.164062 531.910156 C 786.046875 509.226562 819.277344 421.386719 819.277344 421.386719 "/>
</g>
</svg>
